:SAMPLES-PER-SECOND 30
:FULLY-SPECIFIED
:DEGREES
552
root  -10.0619 40.9415 0.49394 29.5612 82.9215 22.0143
RightUpLeg  8.93531 -20.3172 -10.4438
RightLeg  17.6709 5.55597 2.59098
RightFoot  4.28161 -1.37146 10.4702
RightToes  -4.65663e-010 0 -3.6325e-017
Spine  22.5652 5.43984 7.40887
Spine1  -1.83744 7.16884 -3.43855
HEad  -11.4659 -7.00785 -0.338487
LeftShoulder1  5.7756 -9.91884 -36.9071
LeftArm  -17.215 38.7854 -14.0673
LeftForeArm  29.1429 -16.1645 -1.48829
LeftHand  -0.244104 0.0205437 5.32207
RightShoulder  4.42729 7.73645 33.4423
RightArm  -9.57494 2.95398 31.5838
RightForeArm  13.0722 65.1334 24.0342
RightHand  -4.10625 10.2501 -30.1166
LeftUpLeg  -56.7976 3.53763 -4.98387
LeftLeg  62.7132 4.83039 10.7601
LeftFoot  -11.481 0.0664162 -1.92359
LeftToes  -5.82109e-011 -4.83791e-012 -1.00937e-011
553
root  -6.87574 41.8971 0.499955 17.9735 82.4766 10.6344
RightUpLeg  13.0471 -22.9044 -13.2429
RightLeg  17.0107 4.70011 2.57957
RightFoot  14.773 -2.06744 9.35235
RightToes  -4.65663e-010 0 -3.6325e-017
Spine  19.439 6.29553 7.59655
Spine1  -1.61354 7.9332 -4.08506
HEad  -7.38189 -7.35456 -0.148847
LeftShoulder1  5.08972 -9.02734 -34.5499
LeftArm  -16.5949 44.4211 -10.9671
LeftForeArm  26.8644 -16.9945 -1.42404
LeftHand  -0.244104 0.0205437 5.32207
RightShoulder  4.36151 7.65096 33.157
RightArm  -5.36291 0.839999 32.3856
RightForeArm  16.9986 68.5731 28.811
RightHand  -3.60496 9.00162 -28.7873
LeftUpLeg  -53.9029 5.5241 -4.51276
LeftLeg  49.6379 5.34044 7.17718
LeftFoot  -11.2456 0.0687153 -2.60124
LeftToes  -5.82109e-011 -4.83791e-012 -1.00937e-011
554
root  -3.67762 42.4423 0.446615 0.356659 81.3089 -5.88843
RightUpLeg  16.0769 -23.8552 -14.5866
RightLeg  21.6779 1.73458 0.364945
RightFoot  16.1104 -1.72474 7.48393
RightToes  -4.65663e-010 0 -3.6325e-017
Spine  16.1292 6.94282 9.02198
Spine1  0.338136 8.67683 -4.13275
HEad  -4.28734 -7.07354 -0.260188
LeftShoulder1  4.5011 -8.19777 -32.4084
LeftArm  -16.7962 49.7444 -8.33593
LeftForeArm  26.7225 -18.2833 -1.52369
LeftHand  -0.244104 0.0205437 5.32207
RightShoulder  4.29992 7.66576 32.5546
RightArm  -0.993468 -0.384458 33.0051
RightForeArm  25.9789 72.4107 36.286
RightHand  -2.85682 7.03619 -26.5198
LeftUpLeg  -48.7046 8.0141 -2.86109
LeftLeg  36.0533 4.57959 3.94146
LeftFoot  -11.3986 0.0670287 -4.04396
LeftToes  -5.82109e-011 -4.83791e-012 -1.00937e-011
555
root  -0.415519 42.5647 0.371985 -9.29956 79.4272 -14.1659
RightUpLeg  17.7684 -19.5497 -14.9064
RightLeg  28.8613 -3.65661 -2.3941
RightFoot  13.625 -1.41753 6.83142
RightToes  -4.65663e-010 0 -3.6325e-017
Spine  12.565 7.60161 10.0847
Spine1  2.97656 9.391 -4.16381
HEad  -1.53803 -6.60271 -0.126753
LeftShoulder1  3.88415 -7.26515 -29.9742
LeftArm  -18.2257 54.4158 -6.37777
LeftForeArm  28.7725 -19.9046 -1.87738
LeftHand  -0.244104 0.0205437 5.32207
RightShoulder  4.18443 7.56983 31.8422
RightArm  2.88541 -1.97401 33.7312
RightForeArm  42.686 76.3795 49.5717
RightHand  -2.17389 5.046 -24.1337
LeftUpLeg  -42.671 10.6071 -1.79398
LeftLeg  23.64 3.48863 2.06427
LeftFoot  -10.9485 0.0812458 -4.55182
LeftToes  -5.82109e-011 -4.83791e-012 -1.00937e-011
556
root  2.85783 42.2921 0.286199 -11.4719 77.6927 -14.9059
RightUpLeg  18.5017 -15.3177 -16.0184
RightLeg  36.7866 -5.0563 -4.27023
RightFoot  12.0362 -1.33786 6.86143
RightToes  -4.65663e-010 0 -3.6325e-017
Spine  8.98879 8.24924 10.5828
Spine1  5.45379 10.0949 -4.66716
HEad  1.51423 -6.26235 0.240745
LeftShoulder1  3.15083 -5.96334 -27.1006
LeftArm  -19.3964 57.4288 -4.85449
LeftForeArm  31.4918 -21.1344 -2.26271
LeftHand  -0.244104 0.0205437 5.32207
RightShoulder  4.02212 7.4121 30.8944
RightArm  5.77935 -4.95043 34.8591
RightForeArm  68.4703 79.2068 71.2405
RightHand  -1.79405 3.91965 -22.3898
LeftUpLeg  -36.45 11.3381 -0.537758
LeftLeg  14.0239 5.04188 0.837752
LeftFoot  -11.555 0.0594316 -4.44455
LeftToes  -5.82109e-011 -4.83791e-012 -1.00937e-011
557
root  6.11335 41.5968 0.134708 -13.4462 75.5238 -15.3968
RightUpLeg  18.0847 -10.8645 -16.8623
RightLeg  44.9221 -4.73221 -5.35251
RightFoot  10.9695 -1.19344 6.42546
RightToes  -4.65663e-010 0 -3.6325e-017
Spine  5.921 9.09638 12.5882
Spine1  7.23286 11.3406 -6.34932
HEad  5.24992 -6.42339 0.478557
LeftShoulder1  2.46189 -4.66926 -23.8119
LeftArm  -17.9998 58.4853 -3.32258
LeftForeArm  32.9527 -21.2622 -2.25959
LeftHand  -0.244104 0.0205437 5.32207
RightShoulder  3.88059 7.44453 29.4754
RightArm  7.39187 -10.0791 36.2053
RightForeArm  95.8419 79.8712 95.6612
RightHand  -1.7565 3.965 -21.8154
LeftUpLeg  -29.5891 7.45035 4.14813
LeftLeg  7.53202 13.4383 -1.24118
LeftFoot  -13.7704 -0.0279521 -5.26876
LeftToes  -5.82109e-011 -4.83791e-012 -1.00937e-011
558
root  9.3477 40.4846 -0.0888262 -15.2823 72.8616 -15.9156
RightUpLeg  16.68 -6.52595 -17.7569
RightLeg  53.0739 -4.81198 -7.25514
RightFoot  8.81082 -1.02839 6.13301
RightToes  -4.65663e-010 0 -3.6325e-017
Spine  3.69606 10.2085 15.4605
Spine1  7.75664 12.92 -8.47378
HEad  8.91447 -6.72216 0.460529
LeftShoulder1  2.00146 -3.88861 -20.5791
LeftArm  -14.2584 58.7815 -1.59726
LeftForeArm  33.6175 -21.2069 -2.28061
LeftHand  -0.244104 0.0205437 5.32207
RightShoulder  3.77652 7.63113 27.9031
RightArm  8.36051 -16.5788 37.1341
RightForeArm  111.938 79.1461 111.993
RightHand  -1.96756 4.77196 -22.4769
LeftUpLeg  -24.2121 6.91715 5.89704
LeftLeg  5.05317 19.0716 -2.398
LeftFoot  -13.6623 -0.0276762 -5.5837
LeftToes  -5.82109e-011 -4.83791e-012 -1.00937e-011
